<svg xmlns="http://www.w3.org/2000/svg" viewBox="0 0 3824 400" version="1.1">
	<path d="M 3288 2.030 C 3287.049 2.663, 3270.247 2.982, 3242.130 2.900 C 3205.624 2.793, 3197.607 3.012, 3196.895 4.135 C 3195.495 6.345, 3195.757 394.372, 3197.161 397.453 L 3198.321 400 3245.411 399.992 L 3292.500 399.984 3293.750 397.293 C 3294.736 395.169, 3295 353.574, 3295 199.975 L 3295 5.349 3292.686 3.174 C 3290.042 0.691, 3290.019 0.685, 3288 2.030 M 3358.336 3.500 C 3357.216 4.323, 3357.022 12.552, 3357.238 50 L 3357.500 95.500 3518.500 96 C 3700.438 96.565, 3681.754 95.647, 3694.641 104.654 C 3713.283 117.682, 3719.256 132.613, 3718.784 165 L 3718.500 184.500 3715.750 184.816 C 3714.238 184.990, 3713 184.693, 3713 184.156 C 3713 182.166, 3704.757 172.844, 3698.255 167.480 C 3689.685 160.411, 3681.385 156.445, 3672.308 155.081 C 3662.132 153.551, 3406.603 153.578, 3396.732 155.109 C 3375.730 158.368, 3357.908 180.596, 3354.817 207.389 C 3353.150 221.835, 3354.482 353.933, 3356.363 360.735 C 3361.290 378.550, 3377.307 394.121, 3393.792 397.123 C 3396.931 397.694, 3399.927 398.575, 3400.450 399.081 C 3402.229 400.802, 3677.154 400.198, 3679.441 398.468 C 3680.509 397.661, 3682.358 397, 3683.551 397 C 3690 397, 3709.345 382.483, 3711.920 375.711 C 3713.076 372.671, 3716.058 370.800, 3717.916 371.948 C 3718.881 372.545, 3719.185 375.640, 3719.074 383.748 C 3718.982 390.481, 3719.388 395.758, 3720.122 397.369 L 3721.321 400 3770 400 L 3818.680 400 3819.896 396.250 C 3820.834 393.359, 3821.038 360.662, 3820.786 253.500 C 3820.428 100.638, 3821.022 116.113, 3814.802 97.500 C 3805.719 70.323, 3786.259 41.829, 3765.224 24.907 C 3753.144 15.189, 3746.001 11.098, 3732.500 6.166 L 3725.500 3.608 3616.500 3.303 C 3556.550 3.136, 3474.244 2.886, 3433.598 2.749 C 3385.507 2.587, 3359.222 2.849, 3358.336 3.500 M 2.750 4.157 C 0.004 5.165, -1.009 8.258, 1 9.500 C 1.661 9.909, 2.005 75.442, 2.014 202.809 C 2.021 308.789, 2.299 396.512, 2.630 397.750 L 3.233 400 204.010 400 C 381.555 400, 404.853 399.826, 405.362 398.500 C 405.678 397.675, 406.559 397, 407.320 397 C 409.771 397, 418.388 391.947, 422.377 388.170 C 430.200 380.765, 437.089 368.164, 442.151 352 C 444.477 344.575, 444.500 344.031, 444.500 297.500 L 444.500 250.500 440.058 241.576 C 434.783 230.976, 422.850 217.876, 406 204.185 C 395.750 195.856, 393 193.275, 393 191.982 C 393 191.632, 398.308 185.981, 404.796 179.423 C 425.141 158.860, 425.997 155.809, 425.999 103.815 C 426 64.141, 425.444 59.660, 418.907 46.697 C 409.527 28.095, 398.603 16.622, 381.302 7.203 L 374.500 3.500 190 3.323 C 67.841 3.207, 4.571 3.488, 2.750 4.157 M 1055.642 3.691 C 1054.421 4.912, 1055.010 6.805, 1057.492 9.647 C 1058.863 11.216, 1065.369 19.925, 1071.949 29 C 1083.837 45.396, 1096.845 63.173, 1104.500 73.485 C 1106.700 76.449, 1110.075 81.178, 1112 83.994 C 1113.925 86.810, 1117.525 91.777, 1120 95.032 C 1125.865 102.744, 1130.778 109.361, 1134.500 114.563 C 1136.150 116.868, 1142.225 125.200, 1148 133.077 C 1153.775 140.955, 1159.281 148.547, 1160.237 149.950 C 1161.192 151.352, 1163.667 154.807, 1165.737 157.626 C 1187.524 187.303, 1199.283 203.575, 1199.668 204.577 C 1199.923 205.241, 1198.189 208.028, 1195.816 210.769 C 1187.230 220.686, 1177.279 232.625, 1166.099 246.426 C 1159.828 254.167, 1154.393 260.725, 1154.020 261 C 1153.648 261.275, 1150.226 265.325, 1146.417 270 C 1142.607 274.675, 1138.312 279.850, 1136.872 281.500 C 1134.073 284.707, 1107.703 316.478, 1099.460 326.575 C 1093.326 334.087, 1080.216 349.810, 1074.507 356.500 C 1072.160 359.250, 1065.038 367.800, 1058.680 375.500 C 1052.322 383.200, 1045.535 391.300, 1043.597 393.500 C 1041.660 395.700, 1040.058 398.063, 1040.038 398.750 C 1040.008 399.738, 1053.767 399.988, 1105.750 399.943 L 1171.500 399.887 1184 384.425 C 1190.875 375.921, 1197.759 367.284, 1199.298 365.232 C 1200.836 363.179, 1203.335 360.150, 1204.850 358.500 C 1206.365 356.850, 1216.806 344.104, 1228.052 330.174 C 1252.980 299.301, 1275.124 271.970, 1283.086 262.250 C 1286.353 258.262, 1289.668 255, 1290.454 255 C 1291.239 255, 1294.496 258.216, 1297.691 262.147 C 1300.886 266.079, 1305.696 271.816, 1308.380 274.897 C 1311.064 277.979, 1314.021 281.723, 1314.950 283.219 C 1315.880 284.714, 1318.479 288.089, 1320.727 290.719 C 1322.976 293.348, 1327.219 298.494, 1330.157 302.152 C 1333.096 305.811, 1344.725 320.154, 1356 334.026 C 1367.275 347.898, 1378.975 362.320, 1382 366.075 C 1385.025 369.831, 1392.112 378.531, 1397.750 385.410 C 1403.388 392.288, 1408 398.385, 1408 398.958 C 1408 399.670, 1428.737 400, 1473.500 400 C 1527.324 400, 1539 399.763, 1539 398.670 C 1539 397.939, 1536.625 394.677, 1533.721 391.420 C 1530.818 388.164, 1525.309 381.675, 1521.480 377 C 1517.651 372.325, 1514.020 368.050, 1513.412 367.500 C 1512.803 366.950, 1508.657 361.940, 1504.199 356.367 C 1499.740 350.794, 1495.490 345.619, 1494.756 344.867 C 1494.021 344.115, 1489.164 338.325, 1483.961 332 C 1478.758 325.675, 1473.537 319.375, 1472.358 318 C 1471.179 316.625, 1463.138 306.950, 1454.488 296.500 C 1445.839 286.050, 1437.572 276.150, 1436.118 274.500 C 1434.664 272.850, 1428.322 265.200, 1422.024 257.500 C 1415.725 249.800, 1410.313 243.275, 1409.995 243 C 1409.678 242.725, 1405.387 237.642, 1400.459 231.704 C 1395.532 225.766, 1389.149 218.116, 1386.275 214.704 C 1380.100 207.373, 1380.042 206.984, 1384.250 201.326 C 1387.187 197.377, 1397.002 184.356, 1401.834 178 C 1402.879 176.625, 1408.274 169.425, 1413.823 162 C 1429.073 141.592, 1435.054 133.607, 1440 127.047 C 1442.475 123.764, 1445.245 120.048, 1446.157 118.789 C 1447.068 117.530, 1453.238 109.300, 1459.869 100.500 C 1466.499 91.700, 1473.854 81.855, 1476.212 78.623 C 1478.570 75.391, 1484.775 67.196, 1490 60.412 C 1495.225 53.628, 1501.300 45.584, 1503.500 42.537 C 1507.422 37.104, 1514.561 27.584, 1524.488 14.549 C 1527.231 10.947, 1529.850 8, 1530.307 8 C 1530.765 8, 1530.995 6.988, 1530.820 5.750 L 1530.500 3.500 1472.540 3.216 C 1431.674 3.015, 1413.831 3.259, 1412.040 4.042 C 1410.643 4.652, 1407.602 7.705, 1405.283 10.826 C 1402.964 13.947, 1399.953 17.850, 1398.593 19.500 C 1397.233 21.150, 1392.183 27.450, 1387.370 33.500 C 1382.558 39.550, 1378.368 44.725, 1378.058 45 C 1377.748 45.275, 1375.613 47.975, 1373.312 51 C 1371.012 54.025, 1368.288 57.400, 1367.259 58.500 C 1366.231 59.600, 1362.939 63.685, 1359.945 67.578 C 1354.374 74.820, 1352.670 76.955, 1342.045 90 C 1338.686 94.125, 1332.334 102, 1327.930 107.500 C 1323.527 113, 1319.330 118.218, 1318.605 119.095 C 1317.879 119.971, 1314.888 123.796, 1311.958 127.595 C 1300.184 142.854, 1289.565 155, 1287.997 155 C 1286.537 155, 1272.396 138.283, 1266.474 129.557 C 1264.513 126.667, 1244.531 101.181, 1236.698 91.579 C 1234.939 89.423, 1232.825 86.629, 1232 85.370 C 1230.508 83.095, 1220.197 69.805, 1201.944 46.632 C 1196.688 39.959, 1188.279 29.100, 1183.257 22.500 C 1178.236 15.900, 1172.798 8.925, 1171.173 7 L 1168.220 3.500 1112.252 3.275 C 1081.470 3.151, 1055.995 3.338, 1055.642 3.691 M 1654.500 3.982 C 1624.799 11.680, 1594.486 49.369, 1590.946 83 C 1589.505 96.688, 1589.678 394.200, 1591.129 397.384 L 1592.321 400 1633.063 400 L 1673.804 400 1674.902 396.851 C 1675.677 394.629, 1676 356.943, 1676 268.928 L 1676 144.153 1678.734 140.827 C 1682.308 136.477, 1682.995 136.034, 1686.177 136.015 C 1690.380 135.991, 1693.795 141.198, 1701.373 159.186 C 1705.153 168.159, 1709.138 177.525, 1710.229 180 C 1711.319 182.475, 1712.804 185.850, 1713.529 187.500 C 1714.254 189.150, 1716.258 193.875, 1717.983 198 C 1719.707 202.125, 1721.509 206.400, 1721.988 207.500 C 1722.466 208.600, 1724.915 214.338, 1727.429 220.250 C 1737.951 244.996, 1741.225 252.660, 1742.488 255.500 C 1743.221 257.150, 1745.702 263, 1748 268.500 C 1750.298 274, 1752.784 279.850, 1753.524 281.500 C 1754.265 283.150, 1756.279 287.875, 1758 292 C 1759.721 296.125, 1761.775 300.962, 1762.565 302.750 C 1763.354 304.538, 1764.646 307.462, 1765.435 309.250 C 1766.225 311.038, 1768.279 315.875, 1770 320 C 1771.721 324.125, 1773.836 329.075, 1774.699 331 C 1777.006 336.142, 1778.535 339.737, 1781.508 347 C 1782.971 350.575, 1784.771 354.850, 1785.508 356.500 C 1786.245 358.150, 1788.045 362.425, 1789.509 366 C 1792.081 372.283, 1793.403 375.297, 1797.891 385.110 C 1799.051 387.645, 1800 390.385, 1800 391.199 C 1800 392.012, 1801.237 394.309, 1802.750 396.303 L 1805.500 399.927 1842.576 399.964 L 1879.651 400 1881.826 397.686 C 1883.022 396.413, 1884 395.004, 1884 394.554 C 1884 394.105, 1885.844 389.409, 1888.098 384.119 C 1890.351 378.829, 1893.315 371.800, 1894.685 368.500 C 1896.054 365.200, 1897.810 361.082, 1898.587 359.349 C 1899.364 357.616, 1900 355.865, 1900 355.458 C 1900 355.052, 1900.854 352.870, 1901.899 350.610 C 1902.943 348.349, 1904.994 343.575, 1906.456 340 C 1907.918 336.425, 1909.763 332.306, 1910.557 330.846 C 1911.351 329.386, 1912 327.635, 1912 326.955 C 1912 326.275, 1912.900 323.757, 1914 321.360 C 1915.100 318.962, 1916.900 315.038, 1918 312.640 C 1919.100 310.243, 1920 307.744, 1920 307.089 C 1920 306.433, 1920.869 304.232, 1921.930 302.198 C 1922.992 300.164, 1925.056 295.575, 1926.517 292 C 1927.979 288.425, 1929.810 284.082, 1930.587 282.349 C 1931.364 280.616, 1932 278.865, 1932 278.458 C 1932 278.052, 1932.854 275.870, 1933.899 273.610 C 1934.943 271.349, 1937 266.575, 1938.469 263 C 1939.938 259.425, 1941.532 255.600, 1942.011 254.500 C 1942.490 253.400, 1944.293 249.125, 1946.017 245 C 1947.742 240.875, 1949.793 236.082, 1950.576 234.349 C 1951.359 232.616, 1952 230.865, 1952 230.458 C 1952 230.052, 1952.846 227.870, 1953.880 225.610 C 1954.914 223.349, 1956.688 219.250, 1957.822 216.500 C 1958.956 213.750, 1961.748 207, 1964.026 201.500 C 1966.304 196, 1969.076 189.250, 1970.187 186.500 C 1972.242 181.411, 1972.851 179.989, 1977.414 169.629 C 1978.836 166.400, 1980 163.353, 1980 162.859 C 1980 162.364, 1981.839 158.177, 1984.088 153.555 C 1990.659 140.044, 1998.913 136.086, 2004.699 143.672 L 2007.500 147.344 2008 272.422 C 2008.275 341.215, 2008.864 398.063, 2009.309 398.750 C 2009.935 399.717, 2019.461 400, 2051.343 400 L 2092.569 400 2094.034 397.250 C 2095.954 393.649, 2095.126 93.916, 2093.167 83 C 2086.251 44.474, 2060.562 11.584, 2031.500 4.048 C 2026.399 2.726, 2003.870 2.733, 1998.116 4.059 C 1975.066 9.374, 1952.101 35.987, 1933.882 78.500 C 1932.232 82.350, 1930.491 86.400, 1930.012 87.500 C 1929.533 88.600, 1925.250 98.500, 1920.495 109.500 C 1911.962 129.236, 1911.138 131.126, 1907.191 140 C 1906.090 142.475, 1902.866 149.900, 1900.025 156.500 C 1897.184 163.100, 1894.156 170.075, 1893.295 172 C 1891.050 177.023, 1889.545 180.514, 1885.968 189 C 1884.230 193.125, 1881.500 199.314, 1879.904 202.753 C 1878.307 206.192, 1877 209.288, 1877 209.634 C 1877 210.750, 1861.488 246.091, 1857.878 253.198 C 1856.845 255.232, 1856 257.343, 1856 257.889 C 1856 258.435, 1854.233 262.635, 1852.074 267.223 C 1849.914 271.811, 1847.839 276.792, 1847.463 278.292 C 1847.086 279.792, 1846.391 281.259, 1845.916 281.552 C 1845.442 281.845, 1844.575 283.865, 1843.989 286.042 C 1842.406 291.918, 1838.294 291.341, 1836.562 285 C 1836.186 283.625, 1834.133 278.450, 1832 273.500 C 1829.866 268.550, 1825.367 257.975, 1822 250 C 1818.633 242.025, 1814.155 231.450, 1812.047 226.500 C 1809.940 221.550, 1807.008 214.575, 1805.532 211 C 1804.056 207.425, 1802.245 203.150, 1801.508 201.500 C 1800.771 199.850, 1798.974 195.575, 1797.514 192 C 1796.054 188.425, 1794.468 184.600, 1793.989 183.500 C 1793.510 182.400, 1791.715 178.125, 1790 174 C 1788.285 169.875, 1786.490 165.600, 1786.011 164.500 C 1785.532 163.400, 1783.946 159.575, 1782.486 156 C 1781.026 152.425, 1779.229 148.150, 1778.492 146.500 C 1777.755 144.850, 1775.955 140.575, 1774.492 137 C 1773.029 133.425, 1771.224 129.150, 1770.481 127.500 C 1769.738 125.850, 1767.724 121.125, 1766.006 117 C 1764.288 112.875, 1762.489 108.600, 1762.007 107.500 C 1761.526 106.400, 1757.978 98.296, 1754.124 89.492 C 1730.971 36.597, 1710.237 11.208, 1684.628 4.389 C 1679.129 2.925, 1659.597 2.661, 1654.500 3.982 M 2249.500 3.672 C 2213.346 11.900, 2175.822 44.489, 2162.767 79 C 2156.048 96.762, 2156.626 86.919, 2156.249 190 C 2156.039 247.316, 2156.284 286.209, 2156.882 290.500 C 2163.004 334.439, 2198.535 380.345, 2236.603 393.500 C 2250.865 398.429, 2248.960 398.380, 2441 398.787 C 2540.275 398.998, 2623.075 399.391, 2625 399.661 C 2631.905 400.628, 2632 399.998, 2632 353.287 C 2632 322.128, 2631.702 311.981, 2630.750 310.699 C 2629.588 309.133, 2617.229 308.997, 2455 308.758 L 2280.500 308.500 2275.609 306.003 C 2265.998 301.094, 2255.253 285.880, 2252.997 273.985 C 2251.353 265.316, 2251.707 248.436, 2253.571 246.571 C 2254.988 245.155, 2271.920 245, 2425.022 245 C 2544.171 245, 2596.484 244.673, 2600.201 243.905 C 2617.285 240.376, 2627.418 229.944, 2634.105 209 L 2636.500 201.500 2636.500 139.500 L 2636.500 77.500 2634.194 71.500 C 2623.373 43.348, 2598.027 18.199, 2568.500 6.317 L 2561.500 3.500 2406.500 3.358 C 2321.250 3.280, 2250.600 3.421, 2249.500 3.672 M 2695.429 4.847 C 2694.368 5.038, 2693.138 5.535, 2692.696 5.951 C 2691.764 6.828, 2691.575 90.504, 2692.501 92.002 C 2692.907 92.659, 2742.275 93, 2836.849 93 C 2961.384 93, 2981.349 93.200, 2986.339 94.500 C 2989.506 95.325, 2992.876 96, 2993.828 96 C 2996.295 96, 3007.777 101.066, 3012.500 104.238 C 3025.156 112.739, 3033.715 126.552, 3036.567 143.078 C 3038.826 156.169, 3038.129 249.616, 3035.710 258 C 3028.552 282.804, 3016.981 295.593, 2996.265 301.596 L 2987.970 304 2890.092 304 C 2801.763 304, 2792.155 303.846, 2791.607 302.418 C 2791.273 301.548, 2791 269.013, 2791 230.118 C 2791 176.448, 2790.711 159.111, 2789.800 158.200 C 2788.072 156.472, 2695.928 156.472, 2694.200 158.200 C 2693.280 159.120, 2693 186.821, 2693 276.796 C 2693 385.909, 2693.121 394.396, 2694.716 397.096 L 2696.431 400 2866.751 400 C 3009.847 400, 3037.424 399.779, 3039.285 398.620 C 3040.503 397.860, 3043.695 396.961, 3046.377 396.621 C 3059.992 394.896, 3090.904 375.967, 3104.026 361.319 C 3122.520 340.676, 3129.601 327.540, 3133.406 306.820 C 3134.790 299.282, 3135 286.006, 3135 205.843 C 3135 110.267, 3134.847 106.149, 3130.858 94.500 C 3130.293 92.850, 3129.259 89.475, 3128.559 87 C 3121.153 60.790, 3091.700 25.368, 3067.634 13.726 C 3058.955 9.528, 3055.258 8, 3053.777 8 C 3052.996 8, 3050.364 7.321, 3047.928 6.492 C 3044.060 5.174, 3021.631 4.953, 2870.429 4.742 C 2775.240 4.609, 2696.490 4.656, 2695.429 4.847 M 597.500 7.001 C 564.823 14.343, 534.402 41.219, 518.267 77 C 512.932 88.833, 512 91.173, 512 92.743 C 512 93.673, 511.373 96.248, 510.606 98.467 C 507.412 107.710, 507 119.484, 507 201.639 C 507 295.439, 507.150 297.557, 515.372 319.637 C 529.827 358.458, 562.376 390.599, 593.178 396.468 C 597.178 397.230, 600.612 398.337, 600.809 398.927 C 601.411 400.732, 905.413 400.412, 906.913 398.605 C 907.550 397.837, 909.718 396.900, 911.730 396.523 C 925.889 393.867, 951.605 373.770, 966.142 354 C 980.348 334.680, 986.170 320.714, 989.950 296.885 C 991.414 287.659, 991.389 130.866, 989.921 117.500 C 988.678 106.177, 984.251 86.317, 982.056 82.216 C 981.551 81.272, 979.665 77.350, 977.865 73.500 C 970.159 57.017, 952.039 35.833, 937.500 26.308 C 935.300 24.866, 932.375 22.951, 931 22.051 C 922.156 16.261, 903.770 9.212, 890.643 6.577 C 877.872 4.014, 609.066 4.402, 597.500 7.001 M 102.672 94.810 C 100.373 97.350, 100.109 152.015, 102.386 153.905 C 103.410 154.756, 130.137 155.044, 205.021 155.014 C 304.332 154.974, 306.359 154.935, 310.831 152.957 C 320.510 148.675, 326.561 141.756, 329.516 131.595 C 333.393 118.257, 325.882 102.620, 312.382 95.922 L 307.500 93.500 205.922 93.232 C 108.229 92.974, 104.279 93.034, 102.672 94.810 M 2284 96.012 C 2276.046 97.030, 2266.175 104.917, 2259.609 115.500 C 2254.238 124.156, 2252.852 129.372, 2252.275 143.104 C 2251.755 155.481, 2251.787 155.738, 2254.095 157.354 C 2257.938 160.046, 2538.906 159.867, 2541.345 157.171 C 2544.053 154.179, 2543.767 120.988, 2540.979 114.685 C 2538.303 108.636, 2531.237 101.713, 2524.671 98.707 L 2519.362 96.276 2403.931 95.856 C 2340.444 95.625, 2286.475 95.695, 2284 96.012 M 648.500 104.498 C 644.100 106.425, 639.281 108.902, 637.790 110.001 C 636.300 111.101, 634.621 112, 634.059 112 C 632.004 112, 614.362 130.657, 611.364 136 C 605.103 147.157, 605 148.164, 605 198.403 C 605 247.663, 605.608 255.406, 610.491 268.379 C 617.190 286.176, 626.583 296.415, 641.500 302.181 L 647.500 304.500 750 304.500 L 852.500 304.500 859 302.143 C 879.232 294.806, 889.546 282.200, 892.560 261.123 C 894.279 249.109, 894.578 164.334, 892.938 154.115 C 889.546 132.976, 876.752 114.188, 861.064 107.309 C 847.380 101.307, 853.343 101.632, 750.500 101.298 L 656.500 100.993 648.500 104.498 M 3571 246.023 C 3517.925 246.311, 3473.375 246.944, 3472 247.431 C 3467.860 248.895, 3461.515 253.636, 3458.627 257.423 C 3448.270 271.001, 3450.042 288.034, 3462.968 299.168 C 3472.444 307.331, 3465.270 306.835, 3575.221 306.922 L 3672.943 307 3678.347 304.610 C 3693.213 298.036, 3700.971 283.565, 3697.105 269.623 C 3693.382 256.198, 3683.691 247.694, 3670 245.839 C 3668.625 245.652, 3624.075 245.735, 3571 246.023 M 104 251.308 L 101.500 252.558 101.235 280.567 C 101.032 301.999, 101.268 308.985, 102.242 310.316 C 103.436 311.949, 109.677 312.052, 204.507 312.007 C 308.618 311.958, 308.148 311.972, 314 308.650 C 340.419 293.650, 333.339 255.303, 303.367 251.052 C 292.273 249.479, 107.182 249.716, 104 251.308" stroke="none" fill="#ffffff" fill-rule="evenodd"/>
</svg>